<?xml version="1.0" encoding="UTF-8" standalone="no"?>
<!DOCTYPE svg PUBLIC "-//W3C//DTD SVG 1.1//EN" "http://www.w3.org/Graphics/SVG/1.1/DTD/svg11.dtd">
<svg width="100%" height="100%" viewBox="0 0 3508 2481" version="1.1" xmlns="http://www.w3.org/2000/svg" xmlns:xlink="http://www.w3.org/1999/xlink" xml:space="preserve" xmlns:serif="http://www.serif.com/" style="fill-rule:evenodd;clip-rule:evenodd;stroke-linecap:round;stroke-linejoin:round;stroke-miterlimit:1.5;">
    <g transform="matrix(2.21377,0,0,2.21377,167.621,293.933)">
        <text x="20.165px" y="43.26px" style="font-family:'ArialMT', 'Arial', sans-serif;font-size:8.245px;">Brian <tspan x="41.555px 45.678px 50.264px " y="43.26px 43.26px 43.26px ">Tay</tspan>lor V<tspan x="70.728px 75.314px " y="43.26px 43.26px ">an</tspan>n</text>
    </g>
    <g transform="matrix(2.60722,0,0,2.60722,251.239,835.591)">
        <text x="20.165px" y="43.26px" style="font-family:'ArialMT', 'Arial', sans-serif;font-size:6.146px;">Infra server</text>
        <text x="20.165px" y="55.955px" style="font-family:'ArialMT', 'Arial', sans-serif;font-size:6.146px;">is a registry of:</text>
        <text x="20.165px" y="62.302px" style="font-family:'ArialMT', 'Arial', sans-serif;font-size:6.146px;">- sessions (guest, component)</text>
        <text x="20.165px" y="68.649px" style="font-family:'ArialMT', 'Arial', sans-serif;font-size:6.146px;">- list of broadcaster components (api)</text>
        <text x="20.165px" y="74.996px" style="font-family:'ArialMT', 'Arial', sans-serif;font-size:6.146px;">- list of receiver components (db, cache)</text>
        <text x="25.288px" y="81.344px" style="font-family:'ArialMT', 'Arial', sans-serif;font-size:6.146px;">available to broadcast components</text>
        <text x="20.165px" y="100.386px" style="font-family:'ArialMT', 'Arial', sans-serif;font-size:6.146px;">has a:</text>
        <text x="20.165px" y="106.733px" style="font-family:'ArialMT', 'Arial', sans-serif;font-size:6.146px;">- list of skeleton key users</text>
    </g>
    <g transform="matrix(2.60722,0,0,2.60722,264.587,715.616)">
        <text x="20.165px" y="43.26px" style="font-family:'ArialMT', 'Arial', sans-serif;font-size:6.146px;">Skeleton Keys</text>
        <text x="20.165px" y="55.955px" style="font-family:'ArialMT', 'Arial', sans-serif;font-size:6.146px;">The ecosystem has a dedicated set of</text>
        <text x="20.165px" y="62.302px" style="font-family:'ArialMT', 'Arial', sans-serif;font-size:6.146px;">super users called</text>
        <text x="71.751px" y="62.302px" style="font-family:'Arial-ItalicMT', 'Arial', sans-serif;font-style:italic;font-size:6.146px;">skeleton keys</text>
    </g>
    <g transform="matrix(2.60722,0,0,2.60722,931.42,456.197)">
        <text x="20.165px" y="43.26px" style="font-family:'ArialMT', 'Arial', sans-serif;font-size:6.146px;">Request a</text>
        <text x="49.891px" y="43.26px" style="font-family:'Arial-ItalicMT', 'Arial', sans-serif;font-style:italic;font-size:6.146px;">server session</text>
    </g>
    <g transform="matrix(2.60722,0,0,2.60722,2206.44,453.247)">
        <text x="20.165px" y="43.26px" style="font-family:'ArialMT', 'Arial', sans-serif;font-size:6.146px;">Register receiver and broadcaster with infra</text>
    </g>
    <g transform="matrix(2.60722,0,0,2.60722,894.19,1236.01)">
        <text x="20.165px" y="43.26px" style="font-family:'ArialMT', 'Arial', sans-serif;font-size:6.146px;">Renew</text>
        <text x="41.005px" y="43.26px" style="font-family:'Arial-ItalicMT', 'Arial', sans-serif;font-style:italic;font-size:6.146px;">server session</text>
    </g>
    <g transform="matrix(2.60722,0,0,2.60722,1473.63,516.959)">
        <text x="20.165px" y="43.26px" style="font-family:'ArialMT', 'Arial', sans-serif;font-size:6.146px;">receiver / broadcaster server requests</text>
        <text x="20.165px" y="49.607px" style="font-family:'ArialMT', 'Arial', sans-serif;font-size:6.146px;">a guest session</text>
    </g>
    <g transform="matrix(2.60722,0,0,2.60722,1473.63,704.393)">
        <text x="20.165px" y="43.26px" style="font-family:'ArialMT', 'Arial', sans-serif;font-size:6.146px;">receiver server requests a</text>
        <text x="92.924px" y="43.26px" style="font-family:'Arial-ItalicMT', 'Arial', sans-serif;font-style:italic;font-size:6.146px;">server</text>
        <text x="111.708px" y="43.26px" style="font-family:'Arial-ItalicMT', 'Arial', sans-serif;font-style:italic;font-size:6.146px;">sessio</text>
        <text x="129.129px" y="43.26px" style="font-family:'Arial-ItalicMT', 'Arial', sans-serif;font-style:italic;font-size:6.146px;">n</text>
        <text x="20.165px" y="51.293px" style="font-family:'ArialMT', 'Arial', sans-serif;font-size:6.146px;">using a user or a skeleton key and the</text>
        <text x="20.165px" y="59.327px" style="font-family:'ArialMT', 'Arial', sans-serif;font-size:6.146px;">guest session</text>
        <text x="20.165px" y="75.393px" style="font-family:'ArialMT', 'Arial', sans-serif;font-size:6.146px;">the purpose is to tie a server / machine</text>
        <text x="20.165px" y="83.426px" style="font-family:'ArialMT', 'Arial', sans-serif;font-size:6.146px;">to a user</text>
    </g>
    <g transform="matrix(2.60722,0,0,2.60722,1470.79,903.293)">
        <text x="20.165px" y="43.26px" style="font-family:'ArialMT', 'Arial', sans-serif;font-size:6.146px;">infra server checks if there is a user with</text>
        <text x="20.165px" y="51.293px" style="font-family:'ArialMT', 'Arial', sans-serif;font-size:6.146px;">the credentials in component server request</text>
        <text x="20.165px" y="67.36px" style="font-family:'ArialMT', 'Arial', sans-serif;font-size:6.146px;">or</text>
        <text x="20.165px" y="83.426px" style="font-family:'ArialMT', 'Arial', sans-serif;font-size:6.146px;">infra server checks if theres a skeleton key</text>
        <text x="20.165px" y="91.46px" style="font-family:'ArialMT', 'Arial', sans-serif;font-size:6.146px;">with the credentials</text>
        <text x="20.165px" y="107.526px" style="font-family:'ArialMT', 'Arial', sans-serif;font-size:6.146px;">returns server session (or not)</text>
    </g>
    <g transform="matrix(2.21377,0,0,2.21377,140.415,286.013)">
        <text x="31.413px" y="28.423px" style="font-family:'ArialMT', 'Arial', sans-serif;font-size:14.793px;">Register and unregister broadcaster and receiver servers</text>
    </g>
    <g transform="matrix(2.21377,0,0,2.21377,27.5653,347)">
        <text x="84.121px" y="63.539px" style="font-family:'ArialMT', 'Arial', sans-serif;font-size:7.239px;">The tmk3 architecture needs an</text>
        <text x="187.929px" y="63.539px" style="font-family:'Arial-ItalicMT', 'Arial', sans-serif;font-style:italic;font-size:7.239px;">init</text>
        <text x="199.193px" y="63.539px" style="font-family:'ArialMT', 'Arial', sans-serif;font-size:7.239px;">moment.</text>
        <text x="84.121px" y="78.489px" style="font-family:'ArialMT', 'Arial', sans-serif;font-size:7.239px;">The components that make services like validation</text>
        <text x="84.121px" y="85.965px" style="font-family:'ArialMT', 'Arial', sans-serif;font-size:7.239px;">available need to be authenticated themselves.</text>
    </g>
    <g transform="matrix(2.21377,0,0,2.21377,35.7157,634.054)">
        <text x="84.121px" y="63.539px" style="font-family:'ArialMT', 'Arial', sans-serif;font-size:7.239px;">Given a system where we have:</text>
    </g>
    <g transform="matrix(0.873858,0,0,0.873858,213.154,559.989)">
        <path d="M55.529,697.692L73.806,715.969L55.529,734.247L37.251,715.969L55.529,697.692Z" style="fill:rgb(221,221,221);stroke:black;stroke-width:0.48px;"/>
    </g>
    <g transform="matrix(1,0,0,1,187,403)">
        <path d="M80.761,994.914L88.316,1000.4L84.538,1005.6L90.65,1007.59L87.765,1016.47L81.653,1014.48L81.653,1020.91L72.315,1020.91L72.315,1014.48L66.203,1016.47L63.317,1007.59L69.429,1005.6L65.652,1000.4L73.206,994.914L76.984,1000.11L80.761,994.914Z" style="fill:rgb(221,221,221);stroke:black;stroke-width:0.42px;"/>
    </g>
    <g transform="matrix(1,0,0,1,1390.62,469.449)">
        <path d="M80.761,994.914L88.316,1000.4L84.538,1005.6L90.65,1007.59L87.765,1016.47L81.653,1014.48L81.653,1020.91L72.315,1020.91L72.315,1014.48L66.203,1016.47L63.317,1007.59L69.429,1005.6L65.652,1000.4L73.206,994.914L76.984,1000.11L80.761,994.914Z" style="fill:rgb(221,221,221);stroke:black;stroke-width:0.42px;"/>
    </g>
    <g transform="matrix(2.60722,0,0,2.60722,247.172,1068.55)">
        <text x="20.165px" y="43.26px" style="font-family:'ArialMT', 'Arial', sans-serif;font-size:6.146px;">Broadcast server</text>
        <text x="20.165px" y="55.955px" style="font-family:'ArialMT', 'Arial', sans-serif;font-size:6.146px;">is a:</text>
        <text x="20.165px" y="62.302px" style="font-family:'ArialMT', 'Arial', sans-serif;font-size:6.146px;">- web api that relays to entity servers</text>
        <text x="20.165px" y="74.996px" style="font-family:'ArialMT', 'Arial', sans-serif;font-size:6.146px;">has a:</text>
        <text x="20.165px" y="81.344px" style="font-family:'ArialMT', 'Arial', sans-serif;font-size:6.146px;">- skeleton key user (or an internal user)</text>
        <text x="25.288px" y="87.691px" style="font-family:'ArialMT', 'Arial', sans-serif;font-size:6.146px;">to validate component</text>
        <text x="20.165px" y="94.038px" style="font-family:'ArialMT', 'Arial', sans-serif;font-size:6.146px;">- unique id</text>
        <text x="20.165px" y="100.386px" style="font-family:'ArialMT', 'Arial', sans-serif;font-size:6.146px;">- component identity</text>
    </g>
    <g transform="matrix(2.60722,0,0,2.60722,247.172,1293.85)">
        <text x="20.165px" y="43.26px" style="font-family:'ArialMT', 'Arial', sans-serif;font-size:6.146px;">Receiver server</text>
        <text x="20.165px" y="55.955px" style="font-family:'ArialMT', 'Arial', sans-serif;font-size:6.146px;">is a:</text>
        <text x="20.165px" y="62.302px" style="font-family:'ArialMT', 'Arial', sans-serif;font-size:6.146px;">- service tied to a machine, like a</text>
        <text x="25.288px" y="68.649px" style="font-family:'ArialMT', 'Arial', sans-serif;font-size:6.146px;">database or a cache</text>
        <text x="20.165px" y="81.344px" style="font-family:'ArialMT', 'Arial', sans-serif;font-size:6.146px;">has a:</text>
        <text x="20.165px" y="87.691px" style="font-family:'ArialMT', 'Arial', sans-serif;font-size:6.146px;">- skeleton key user (or an internal user)</text>
        <text x="26.996px" y="94.038px" style="font-family:'ArialMT', 'Arial', sans-serif;font-size:6.146px;">to validate component</text>
        <text x="20.165px" y="100.386px" style="font-family:'ArialMT', 'Arial', sans-serif;font-size:6.146px;">- unique id</text>
        <text x="20.165px" y="106.733px" style="font-family:'ArialMT', 'Arial', sans-serif;font-size:6.146px;">- component identity</text>
        <text x="20.165px" y="113.08px" style="font-family:'ArialMT', 'Arial', sans-serif;font-size:6.146px;">- entity identity</text>
    </g>
    <g transform="matrix(0.930119,0,0,0.930119,207.323,486.775)">
        <path d="M61.261,483.817C60.239,483.718 59.21,483.718 58.188,483.817L57.682,486.281C56.703,486.431 55.743,486.688 54.819,487.048L53.149,485.167C52.214,485.592 51.323,486.107 50.488,486.704L51.281,489.09C50.508,489.71 49.805,490.413 49.186,491.186L46.799,490.392C46.202,491.228 45.687,492.119 45.262,493.054L47.143,494.724C46.783,495.647 46.526,496.607 46.376,497.587L43.912,498.093C43.813,499.115 43.813,500.144 43.912,501.166L46.376,501.672C46.526,502.651 46.783,503.611 47.143,504.535L45.262,506.205C45.687,507.14 46.202,508.031 46.799,508.866L49.186,508.072C49.805,508.846 50.508,509.549 51.281,510.168L50.488,512.555C51.323,513.152 52.214,513.667 53.149,514.091L54.819,512.211C55.743,512.571 56.703,512.828 57.682,512.978L58.188,515.442C59.21,515.541 60.239,515.541 61.261,515.442L61.767,512.978C62.747,512.828 63.707,512.571 64.63,512.211L66.3,514.091C67.235,513.667 68.126,513.152 68.961,512.555L68.168,510.168C68.941,509.549 69.644,508.846 70.263,508.072L72.65,508.866C73.247,508.031 73.762,507.14 74.187,506.205L72.306,504.535C72.666,503.611 72.923,502.651 73.073,501.672L75.537,501.166C75.636,500.144 75.636,499.115 75.537,498.093L73.073,497.587C72.923,496.607 72.666,495.647 72.306,494.724L74.187,493.054C73.762,492.119 73.247,491.228 72.65,490.392L70.263,491.186C69.644,490.413 68.941,489.71 68.168,489.09L68.961,486.704C68.126,486.107 67.235,485.592 66.3,485.167L64.63,487.048C63.707,486.688 62.747,486.431 61.767,486.281L61.261,483.817ZM59.725,496.452C61.478,496.452 62.902,497.876 62.902,499.629C62.902,501.383 61.478,502.807 59.725,502.807C57.971,502.807 56.547,501.383 56.547,499.629C56.547,497.876 57.971,496.452 59.725,496.452Z" style="fill:rgb(221,221,221);stroke:black;stroke-width:0.45px;"/>
    </g>
    <g transform="matrix(0.930119,0,0,0.930119,1022.88,157.222)">
        <path d="M61.261,483.817C60.239,483.718 59.21,483.718 58.188,483.817L57.682,486.281C56.703,486.431 55.743,486.688 54.819,487.048L53.149,485.167C52.214,485.592 51.323,486.107 50.488,486.704L51.281,489.09C50.508,489.71 49.805,490.413 49.186,491.186L46.799,490.392C46.202,491.228 45.687,492.119 45.262,493.054L47.143,494.724C46.783,495.647 46.526,496.607 46.376,497.587L43.912,498.093C43.813,499.115 43.813,500.144 43.912,501.166L46.376,501.672C46.526,502.651 46.783,503.611 47.143,504.535L45.262,506.205C45.687,507.14 46.202,508.031 46.799,508.866L49.186,508.072C49.805,508.846 50.508,509.549 51.281,510.168L50.488,512.555C51.323,513.152 52.214,513.667 53.149,514.091L54.819,512.211C55.743,512.571 56.703,512.828 57.682,512.978L58.188,515.442C59.21,515.541 60.239,515.541 61.261,515.442L61.767,512.978C62.747,512.828 63.707,512.571 64.63,512.211L66.3,514.091C67.235,513.667 68.126,513.152 68.961,512.555L68.168,510.168C68.941,509.549 69.644,508.846 70.263,508.072L72.65,508.866C73.247,508.031 73.762,507.14 74.187,506.205L72.306,504.535C72.666,503.611 72.923,502.651 73.073,501.672L75.537,501.166C75.636,500.144 75.636,499.115 75.537,498.093L73.073,497.587C72.923,496.607 72.666,495.647 72.306,494.724L74.187,493.054C73.762,492.119 73.247,491.228 72.65,490.392L70.263,491.186C69.644,490.413 68.941,489.71 68.168,489.09L68.961,486.704C68.126,486.107 67.235,485.592 66.3,485.167L64.63,487.048C63.707,486.688 62.747,486.431 61.767,486.281L61.261,483.817ZM59.725,496.452C61.478,496.452 62.902,497.876 62.902,499.629C62.902,501.383 61.478,502.807 59.725,502.807C57.971,502.807 56.547,501.383 56.547,499.629C56.547,497.876 57.971,496.452 59.725,496.452Z" style="fill:rgb(221,221,221);stroke:black;stroke-width:0.45px;"/>
    </g>
    <g transform="matrix(1,0,0,1,-230.289,265.293)">
        <path d="M465.025,551.445L467.064,557.723L470.995,555.783L470.365,560.121L476.966,560.121L471.626,564.002L474.686,567.141L470.365,567.882L472.405,574.16L467.064,570.28L465.025,574.16L462.985,570.28L457.644,574.16L459.684,567.882L455.363,567.141L458.423,564.002L453.083,560.121L459.684,560.121L459.054,555.783L462.985,557.723L465.025,551.445Z" style="fill:rgb(221,221,221);stroke:black;stroke-width:0.42px;"/>
    </g>
    <g transform="matrix(1,0,0,1,-203.405,265.293)">
        <path d="M465.025,551.445L467.064,557.723L470.995,555.783L470.365,560.121L476.966,560.121L471.626,564.002L474.686,567.141L470.365,567.882L472.405,574.16L467.064,570.28L465.025,574.16L462.985,570.28L457.644,574.16L459.684,567.882L455.363,567.141L458.423,564.002L453.083,560.121L459.684,560.121L459.054,555.783L462.985,557.723L465.025,551.445Z" style="fill:rgb(221,221,221);stroke:black;stroke-width:0.42px;"/>
    </g>
    <g transform="matrix(1,0,0,1,589.353,103.464)">
        <path d="M465.025,551.445L467.064,557.723L470.995,555.783L470.365,560.121L476.966,560.121L471.626,564.002L474.686,567.141L470.365,567.882L472.405,574.16L467.064,570.28L465.025,574.16L462.985,570.28L457.644,574.16L459.684,567.882L455.363,567.141L458.423,564.002L453.083,560.121L459.684,560.121L459.054,555.783L462.985,557.723L465.025,551.445Z" style="fill:rgb(221,221,221);stroke:black;stroke-width:0.42px;"/>
    </g>
    <g transform="matrix(1,0,0,1,616.237,103.464)">
        <path d="M465.025,551.445L467.064,557.723L470.995,555.783L470.365,560.121L476.966,560.121L471.626,564.002L474.686,567.141L470.365,567.882L472.405,574.16L467.064,570.28L465.025,574.16L462.985,570.28L457.644,574.16L459.684,567.882L455.363,567.141L458.423,564.002L453.083,560.121L459.684,560.121L459.054,555.783L462.985,557.723L465.025,551.445Z" style="fill:rgb(221,221,221);stroke:black;stroke-width:0.42px;"/>
    </g>
    <g transform="matrix(0.873858,0,0,0.873858,1422.83,-2.52346)">
        <path d="M55.529,697.692L73.806,715.969L55.529,734.247L37.251,715.969L55.529,697.692Z" style="fill:rgb(221,221,221);stroke:black;stroke-width:0.48px;"/>
    </g>
    <g transform="matrix(0.995254,0,0,0.65563,421.687,343.95)">
        <path d="M716.632,431.126L716.632,440.976L706.65,425.822L716.632,410.668L716.632,420.518L1006.24,420.518L1006.24,431.126L716.632,431.126Z" style="fill:rgb(221,221,221);stroke:black;stroke-width:0.49px;"/>
    </g>
    <g transform="matrix(2.60722,0,0,2.60722,1470.37,1312.92)">
        <text x="20.165px" y="43.26px" style="font-family:'ArialMT', 'Arial', sans-serif;font-size:6.146px;">a session will have an expiry</text>
        <text x="20.165px" y="55.955px" style="font-family:'ArialMT', 'Arial', sans-serif;font-size:6.146px;">lazily wait for the session to expire, compare</text>
        <text x="20.165px" y="62.302px" style="font-family:'ArialMT', 'Arial', sans-serif;font-size:6.146px;">the time a request is made to the expiry</text>
        <text x="20.165px" y="74.996px" style="font-family:'ArialMT', 'Arial', sans-serif;font-size:6.146px;">When a request occurs after the expiry<tspan x="125.269px 126.977px " y="74.996px 74.996px ">, </tspan>renew the</text>
        <text x="20.165px" y="81.344px" style="font-family:'ArialMT', 'Arial', sans-serif;font-size:6.146px;">current server session by repeating steps in</text>
        <text x="20.165px" y="94.038px" style="font-family:'ArialMT', 'Arial', sans-serif;font-size:6.146px;">&quot;Request a</text>
        <text x="52.073px" y="94.038px" style="font-family:'Arial-ItalicMT', 'Arial', sans-serif;font-style:italic;font-size:6.146px;">server session&quot;</text>
        <text x="20.165px" y="106.733px" style="font-family:'ArialMT', 'Arial', sans-serif;font-size:6.146px;">before performing the request</text>
    </g>
    <g transform="matrix(1,0,0,1,357,103)">
        <path d="M575.884,464.387C535.25,477.708 519.874,503.649 507.932,522.603C485.829,557.687 476.755,621.534 476.755,661.431C476.755,855.837 559.657,1099.6 776.9,1153.86C913.618,1188 1066.41,1159.64 1206.12,1167.41C1303.09,1172.79 1384.23,1180.88 1469.97,1228.53C1494.65,1242.24 1532.02,1265.61 1541.81,1294.04C1547.06,1309.26 1544.38,1315.71 1538.84,1326.79C1536.56,1331.34 1512.78,1344.87 1512.78,1339.78" style="fill:none;stroke:black;stroke-width:0.42px;"/>
    </g>
    <g transform="matrix(0.930119,0,0,0.930119,1019.62,953.185)">
        <path d="M61.261,483.817C60.239,483.718 59.21,483.718 58.188,483.817L57.682,486.281C56.703,486.431 55.743,486.688 54.819,487.048L53.149,485.167C52.214,485.592 51.323,486.107 50.488,486.704L51.281,489.09C50.508,489.71 49.805,490.413 49.186,491.186L46.799,490.392C46.202,491.228 45.687,492.119 45.262,493.054L47.143,494.724C46.783,495.647 46.526,496.607 46.376,497.587L43.912,498.093C43.813,499.115 43.813,500.144 43.912,501.166L46.376,501.672C46.526,502.651 46.783,503.611 47.143,504.535L45.262,506.205C45.687,507.14 46.202,508.031 46.799,508.866L49.186,508.072C49.805,508.846 50.508,509.549 51.281,510.168L50.488,512.555C51.323,513.152 52.214,513.667 53.149,514.091L54.819,512.211C55.743,512.571 56.703,512.828 57.682,512.978L58.188,515.442C59.21,515.541 60.239,515.541 61.261,515.442L61.767,512.978C62.747,512.828 63.707,512.571 64.63,512.211L66.3,514.091C67.235,513.667 68.126,513.152 68.961,512.555L68.168,510.168C68.941,509.549 69.644,508.846 70.263,508.072L72.65,508.866C73.247,508.031 73.762,507.14 74.187,506.205L72.306,504.535C72.666,503.611 72.923,502.651 73.073,501.672L75.537,501.166C75.636,500.144 75.636,499.115 75.537,498.093L73.073,497.587C72.923,496.607 72.666,495.647 72.306,494.724L74.187,493.054C73.762,492.119 73.247,491.228 72.65,490.392L70.263,491.186C69.644,490.413 68.941,489.71 68.168,489.09L68.961,486.704C68.126,486.107 67.235,485.592 66.3,485.167L64.63,487.048C63.707,486.688 62.747,486.431 61.767,486.281L61.261,483.817ZM59.725,496.452C61.478,496.452 62.902,497.876 62.902,499.629C62.902,501.383 61.478,502.807 59.725,502.807C57.971,502.807 56.547,501.383 56.547,499.629C56.547,497.876 57.971,496.452 59.725,496.452Z" style="fill:rgb(221,221,221);stroke:black;stroke-width:0.45px;"/>
    </g>
    <g transform="matrix(1,0,0,1,586.093,899.427)">
        <path d="M465.025,551.445L467.064,557.723L470.995,555.783L470.365,560.121L476.966,560.121L471.626,564.002L474.686,567.141L470.365,567.882L472.405,574.16L467.064,570.28L465.025,574.16L462.985,570.28L457.644,574.16L459.684,567.882L455.363,567.141L458.423,564.002L453.083,560.121L459.684,560.121L459.054,555.783L462.985,557.723L465.025,551.445Z" style="fill:rgb(221,221,221);stroke:black;stroke-width:0.42px;"/>
    </g>
    <g transform="matrix(1,0,0,1,612.977,899.427)">
        <path d="M465.025,551.445L467.064,557.723L470.995,555.783L470.365,560.121L476.966,560.121L471.626,564.002L474.686,567.141L470.365,567.882L472.405,574.16L467.064,570.28L465.025,574.16L462.985,570.28L457.644,574.16L459.684,567.882L455.363,567.141L458.423,564.002L453.083,560.121L459.684,560.121L459.054,555.783L462.985,557.723L465.025,551.445Z" style="fill:rgb(221,221,221);stroke:black;stroke-width:0.42px;"/>
    </g>
    <g transform="matrix(0.873858,0,0,0.873858,1419.57,793.44)">
        <path d="M55.529,697.692L73.806,715.969L55.529,734.247L37.251,715.969L55.529,697.692Z" style="fill:rgb(221,221,221);stroke:black;stroke-width:0.48px;"/>
    </g>
    <g transform="matrix(0.995254,0,0,0.65563,418.427,1139.91)">
        <path d="M716.632,431.126L716.632,440.976L706.65,425.822L716.632,410.668L716.632,420.518L1006.24,420.518L1006.24,431.126L716.632,431.126Z" style="fill:rgb(221,221,221);stroke:black;stroke-width:0.49px;"/>
    </g>
    <g transform="matrix(2.60722,0,0,2.60722,894.19,1666.01)">
        <text x="20.165px" y="43.26px" style="font-family:'ArialMT', 'Arial', sans-serif;font-size:6.146px;">Unregister Broadcaster or Receiver</text>
    </g>
    <g transform="matrix(2.60722,0,0,2.60722,1470.37,1742.92)">
        <text x="20.165px" y="43.26px" style="font-family:'ArialMT', 'Arial', sans-serif;font-size:6.146px;">A<tspan x="23.926px 25.633px " y="43.26px 43.26px "> b</tspan>roadcaster component sends a message</text>
        <text x="20.165px" y="49.607px" style="font-family:'ArialMT', 'Arial', sans-serif;font-size:6.146px;">to infra when a dead response is received from a receiver</text>
        <text x="20.165px" y="55.955px" style="font-family:'ArialMT', 'Arial', sans-serif;font-size:6.146px;">or another broadcaster</text>
    </g>
    <g transform="matrix(0.930119,0,0,0.930119,1019.62,1383.18)">
        <path d="M61.261,483.817C60.239,483.718 59.21,483.718 58.188,483.817L57.682,486.281C56.703,486.431 55.743,486.688 54.819,487.048L53.149,485.167C52.214,485.592 51.323,486.107 50.488,486.704L51.281,489.09C50.508,489.71 49.805,490.413 49.186,491.186L46.799,490.392C46.202,491.228 45.687,492.119 45.262,493.054L47.143,494.724C46.783,495.647 46.526,496.607 46.376,497.587L43.912,498.093C43.813,499.115 43.813,500.144 43.912,501.166L46.376,501.672C46.526,502.651 46.783,503.611 47.143,504.535L45.262,506.205C45.687,507.14 46.202,508.031 46.799,508.866L49.186,508.072C49.805,508.846 50.508,509.549 51.281,510.168L50.488,512.555C51.323,513.152 52.214,513.667 53.149,514.091L54.819,512.211C55.743,512.571 56.703,512.828 57.682,512.978L58.188,515.442C59.21,515.541 60.239,515.541 61.261,515.442L61.767,512.978C62.747,512.828 63.707,512.571 64.63,512.211L66.3,514.091C67.235,513.667 68.126,513.152 68.961,512.555L68.168,510.168C68.941,509.549 69.644,508.846 70.263,508.072L72.65,508.866C73.247,508.031 73.762,507.14 74.187,506.205L72.306,504.535C72.666,503.611 72.923,502.651 73.073,501.672L75.537,501.166C75.636,500.144 75.636,499.115 75.537,498.093L73.073,497.587C72.923,496.607 72.666,495.647 72.306,494.724L74.187,493.054C73.762,492.119 73.247,491.228 72.65,490.392L70.263,491.186C69.644,490.413 68.941,489.71 68.168,489.09L68.961,486.704C68.126,486.107 67.235,485.592 66.3,485.167L64.63,487.048C63.707,486.688 62.747,486.431 61.767,486.281L61.261,483.817ZM59.725,496.452C61.478,496.452 62.902,497.876 62.902,499.629C62.902,501.383 61.478,502.807 59.725,502.807C57.971,502.807 56.547,501.383 56.547,499.629C56.547,497.876 57.971,496.452 59.725,496.452Z" style="fill:rgb(221,221,221);stroke:black;stroke-width:0.45px;"/>
    </g>
    <g transform="matrix(1,0,0,1,586.093,1329.43)">
        <path d="M465.025,551.445L467.064,557.723L470.995,555.783L470.365,560.121L476.966,560.121L471.626,564.002L474.686,567.141L470.365,567.882L472.405,574.16L467.064,570.28L465.025,574.16L462.985,570.28L457.644,574.16L459.684,567.882L455.363,567.141L458.423,564.002L453.083,560.121L459.684,560.121L459.054,555.783L462.985,557.723L465.025,551.445Z" style="fill:rgb(221,221,221);stroke:black;stroke-width:0.42px;"/>
    </g>
    <g transform="matrix(1,0,0,1,612.977,1329.43)">
        <path d="M465.025,551.445L467.064,557.723L470.995,555.783L470.365,560.121L476.966,560.121L471.626,564.002L474.686,567.141L470.365,567.882L472.405,574.16L467.064,570.28L465.025,574.16L462.985,570.28L457.644,574.16L459.684,567.882L455.363,567.141L458.423,564.002L453.083,560.121L459.684,560.121L459.054,555.783L462.985,557.723L465.025,551.445Z" style="fill:rgb(221,221,221);stroke:black;stroke-width:0.42px;"/>
    </g>
    <g transform="matrix(0.873858,0,0,0.873858,1419.57,1223.44)">
        <path d="M55.529,697.692L73.806,715.969L55.529,734.247L37.251,715.969L55.529,697.692Z" style="fill:rgb(221,221,221);stroke:black;stroke-width:0.48px;"/>
    </g>
    <g transform="matrix(0.995254,0,0,0.65563,418.427,1569.91)">
        <path d="M716.632,431.126L716.632,440.976L706.65,425.822L716.632,410.668L716.632,420.518L1006.24,420.518L1006.24,431.126L716.632,431.126Z" style="fill:rgb(221,221,221);stroke:black;stroke-width:0.49px;"/>
    </g>
    <g transform="matrix(2.60722,0,0,2.60722,2872.68,532.431)">
        <text x="20.165px" y="43.26px" style="font-family:'ArialMT', 'Arial', sans-serif;font-size:6.146px;">a broadcaster or a receiver announces their role</text>
        <text x="20.165px" y="49.862px" style="font-family:'ArialMT', 'Arial', sans-serif;font-size:6.146px;">after success</text>
        <text x="56.373px" y="49.862px" style="font-family:'ArialMT', 'Arial', sans-serif;font-size:6.392px;">ful session request with</text>
        <text x="20.165px" y="69.158px" style="font-family:'ArialMT', 'Arial', sans-serif;font-size:6.146px;">{</text>
        <text x="23.58px" y="75.505px" style="font-family:'ArialMT', 'Arial', sans-serif;font-size:6.146px;">role            //</text>
        <text x="23.58px" y="81.852px" style="font-family:'ArialMT', 'Arial', sans-serif;font-size:6.146px;">unique_id   // lasts across sessions</text>
        <text x="20.165px" y="88.2px" style="font-family:'ArialMT', 'Arial', sans-serif;font-size:6.146px;">}</text>
    </g>
    <g transform="matrix(0.930119,0,0,0.930119,2421.93,172.694)">
        <path d="M61.261,483.817C60.239,483.718 59.21,483.718 58.188,483.817L57.682,486.281C56.703,486.431 55.743,486.688 54.819,487.048L53.149,485.167C52.214,485.592 51.323,486.107 50.488,486.704L51.281,489.09C50.508,489.71 49.805,490.413 49.186,491.186L46.799,490.392C46.202,491.228 45.687,492.119 45.262,493.054L47.143,494.724C46.783,495.647 46.526,496.607 46.376,497.587L43.912,498.093C43.813,499.115 43.813,500.144 43.912,501.166L46.376,501.672C46.526,502.651 46.783,503.611 47.143,504.535L45.262,506.205C45.687,507.14 46.202,508.031 46.799,508.866L49.186,508.072C49.805,508.846 50.508,509.549 51.281,510.168L50.488,512.555C51.323,513.152 52.214,513.667 53.149,514.091L54.819,512.211C55.743,512.571 56.703,512.828 57.682,512.978L58.188,515.442C59.21,515.541 60.239,515.541 61.261,515.442L61.767,512.978C62.747,512.828 63.707,512.571 64.63,512.211L66.3,514.091C67.235,513.667 68.126,513.152 68.961,512.555L68.168,510.168C68.941,509.549 69.644,508.846 70.263,508.072L72.65,508.866C73.247,508.031 73.762,507.14 74.187,506.205L72.306,504.535C72.666,503.611 72.923,502.651 73.073,501.672L75.537,501.166C75.636,500.144 75.636,499.115 75.537,498.093L73.073,497.587C72.923,496.607 72.666,495.647 72.306,494.724L74.187,493.054C73.762,492.119 73.247,491.228 72.65,490.392L70.263,491.186C69.644,490.413 68.941,489.71 68.168,489.09L68.961,486.704C68.126,486.107 67.235,485.592 66.3,485.167L64.63,487.048C63.707,486.688 62.747,486.431 61.767,486.281L61.261,483.817ZM59.725,496.452C61.478,496.452 62.902,497.876 62.902,499.629C62.902,501.383 61.478,502.807 59.725,502.807C57.971,502.807 56.547,501.383 56.547,499.629C56.547,497.876 57.971,496.452 59.725,496.452Z" style="fill:rgb(221,221,221);stroke:black;stroke-width:0.45px;"/>
    </g>
    <g transform="matrix(1,0,0,1,1988.4,118.936)">
        <path d="M465.025,551.445L467.064,557.723L470.995,555.783L470.365,560.121L476.966,560.121L471.626,564.002L474.686,567.141L470.365,567.882L472.405,574.16L467.064,570.28L465.025,574.16L462.985,570.28L457.644,574.16L459.684,567.882L455.363,567.141L458.423,564.002L453.083,560.121L459.684,560.121L459.054,555.783L462.985,557.723L465.025,551.445Z" style="fill:rgb(221,221,221);stroke:black;stroke-width:0.42px;"/>
    </g>
    <g transform="matrix(1,0,0,1,2015.29,118.936)">
        <path d="M465.025,551.445L467.064,557.723L470.995,555.783L470.365,560.121L476.966,560.121L471.626,564.002L474.686,567.141L470.365,567.882L472.405,574.16L467.064,570.28L465.025,574.16L462.985,570.28L457.644,574.16L459.684,567.882L455.363,567.141L458.423,564.002L453.083,560.121L459.684,560.121L459.054,555.783L462.985,557.723L465.025,551.445Z" style="fill:rgb(221,221,221);stroke:black;stroke-width:0.42px;"/>
    </g>
    <g transform="matrix(0.873858,0,0,0.873858,2821.88,12.9486)">
        <path d="M55.529,697.692L73.806,715.969L55.529,734.247L37.251,715.969L55.529,697.692Z" style="fill:rgb(221,221,221);stroke:black;stroke-width:0.48px;"/>
    </g>
    <g transform="matrix(0.995254,0,0,0.65563,1820.74,359.422)">
        <path d="M716.632,431.126L716.632,440.976L706.65,425.822L716.632,410.668L716.632,420.518L1006.24,420.518L1006.24,431.126L716.632,431.126Z" style="fill:rgb(221,221,221);stroke:black;stroke-width:0.49px;"/>
    </g>
    <g transform="matrix(0.930119,0,0,0.930119,1022.88,347.222)">
        <path d="M61.261,483.817C60.239,483.718 59.21,483.718 58.188,483.817L57.682,486.281C56.703,486.431 55.743,486.688 54.819,487.048L53.149,485.167C52.214,485.592 51.323,486.107 50.488,486.704L51.281,489.09C50.508,489.71 49.805,490.413 49.186,491.186L46.799,490.392C46.202,491.228 45.687,492.119 45.262,493.054L47.143,494.724C46.783,495.647 46.526,496.607 46.376,497.587L43.912,498.093C43.813,499.115 43.813,500.144 43.912,501.166L46.376,501.672C46.526,502.651 46.783,503.611 47.143,504.535L45.262,506.205C45.687,507.14 46.202,508.031 46.799,508.866L49.186,508.072C49.805,508.846 50.508,509.549 51.281,510.168L50.488,512.555C51.323,513.152 52.214,513.667 53.149,514.091L54.819,512.211C55.743,512.571 56.703,512.828 57.682,512.978L58.188,515.442C59.21,515.541 60.239,515.541 61.261,515.442L61.767,512.978C62.747,512.828 63.707,512.571 64.63,512.211L66.3,514.091C67.235,513.667 68.126,513.152 68.961,512.555L68.168,510.168C68.941,509.549 69.644,508.846 70.263,508.072L72.65,508.866C73.247,508.031 73.762,507.14 74.187,506.205L72.306,504.535C72.666,503.611 72.923,502.651 73.073,501.672L75.537,501.166C75.636,500.144 75.636,499.115 75.537,498.093L73.073,497.587C72.923,496.607 72.666,495.647 72.306,494.724L74.187,493.054C73.762,492.119 73.247,491.228 72.65,490.392L70.263,491.186C69.644,490.413 68.941,489.71 68.168,489.09L68.961,486.704C68.126,486.107 67.235,485.592 66.3,485.167L64.63,487.048C63.707,486.688 62.747,486.431 61.767,486.281L61.261,483.817ZM59.725,496.452C61.478,496.452 62.902,497.876 62.902,499.629C62.902,501.383 61.478,502.807 59.725,502.807C57.971,502.807 56.547,501.383 56.547,499.629C56.547,497.876 57.971,496.452 59.725,496.452Z" style="fill:rgb(221,221,221);stroke:black;stroke-width:0.45px;"/>
    </g>
    <g transform="matrix(0.930119,0,0,0.930119,1022.66,538.7)">
        <path d="M61.261,483.817C60.239,483.718 59.21,483.718 58.188,483.817L57.682,486.281C56.703,486.431 55.743,486.688 54.819,487.048L53.149,485.167C52.214,485.592 51.323,486.107 50.488,486.704L51.281,489.09C50.508,489.71 49.805,490.413 49.186,491.186L46.799,490.392C46.202,491.228 45.687,492.119 45.262,493.054L47.143,494.724C46.783,495.647 46.526,496.607 46.376,497.587L43.912,498.093C43.813,499.115 43.813,500.144 43.912,501.166L46.376,501.672C46.526,502.651 46.783,503.611 47.143,504.535L45.262,506.205C45.687,507.14 46.202,508.031 46.799,508.866L49.186,508.072C49.805,508.846 50.508,509.549 51.281,510.168L50.488,512.555C51.323,513.152 52.214,513.667 53.149,514.091L54.819,512.211C55.743,512.571 56.703,512.828 57.682,512.978L58.188,515.442C59.21,515.541 60.239,515.541 61.261,515.442L61.767,512.978C62.747,512.828 63.707,512.571 64.63,512.211L66.3,514.091C67.235,513.667 68.126,513.152 68.961,512.555L68.168,510.168C68.941,509.549 69.644,508.846 70.263,508.072L72.65,508.866C73.247,508.031 73.762,507.14 74.187,506.205L72.306,504.535C72.666,503.611 72.923,502.651 73.073,501.672L75.537,501.166C75.636,500.144 75.636,499.115 75.537,498.093L73.073,497.587C72.923,496.607 72.666,495.647 72.306,494.724L74.187,493.054C73.762,492.119 73.247,491.228 72.65,490.392L70.263,491.186C69.644,490.413 68.941,489.71 68.168,489.09L68.961,486.704C68.126,486.107 67.235,485.592 66.3,485.167L64.63,487.048C63.707,486.688 62.747,486.431 61.767,486.281L61.261,483.817ZM59.725,496.452C61.478,496.452 62.902,497.876 62.902,499.629C62.902,501.383 61.478,502.807 59.725,502.807C57.971,502.807 56.547,501.383 56.547,499.629C56.547,497.876 57.971,496.452 59.725,496.452Z" style="fill:rgb(221,221,221);stroke:black;stroke-width:0.45px;"/>
    </g>
    <g transform="matrix(1,0,0,1,589.353,293.464)">
        <path d="M465.025,551.445L467.064,557.723L470.995,555.783L470.365,560.121L476.966,560.121L471.626,564.002L474.686,567.141L470.365,567.882L472.405,574.16L467.064,570.28L465.025,574.16L462.985,570.28L457.644,574.16L459.684,567.882L455.363,567.141L458.423,564.002L453.083,560.121L459.684,560.121L459.054,555.783L462.985,557.723L465.025,551.445Z" style="fill:rgb(221,221,221);stroke:black;stroke-width:0.42px;"/>
    </g>
    <g transform="matrix(1,0,0,1,589.142,484.943)">
        <path d="M465.025,551.445L467.064,557.723L470.995,555.783L470.365,560.121L476.966,560.121L471.626,564.002L474.686,567.141L470.365,567.882L472.405,574.16L467.064,570.28L465.025,574.16L462.985,570.28L457.644,574.16L459.684,567.882L455.363,567.141L458.423,564.002L453.083,560.121L459.684,560.121L459.054,555.783L462.985,557.723L465.025,551.445Z" style="fill:rgb(221,221,221);stroke:black;stroke-width:0.42px;"/>
    </g>
    <g transform="matrix(1,0,0,1,616.237,293.464)">
        <path d="M465.025,551.445L467.064,557.723L470.995,555.783L470.365,560.121L476.966,560.121L471.626,564.002L474.686,567.141L470.365,567.882L472.405,574.16L467.064,570.28L465.025,574.16L462.985,570.28L457.644,574.16L459.684,567.882L455.363,567.141L458.423,564.002L453.083,560.121L459.684,560.121L459.054,555.783L462.985,557.723L465.025,551.445Z" style="fill:rgb(221,221,221);stroke:black;stroke-width:0.42px;"/>
    </g>
    <g transform="matrix(1,0,0,1,616.026,484.943)">
        <path d="M465.025,551.445L467.064,557.723L470.995,555.783L470.365,560.121L476.966,560.121L471.626,564.002L474.686,567.141L470.365,567.882L472.405,574.16L467.064,570.28L465.025,574.16L462.985,570.28L457.644,574.16L459.684,567.882L455.363,567.141L458.423,564.002L453.083,560.121L459.684,560.121L459.054,555.783L462.985,557.723L465.025,551.445Z" style="fill:rgb(221,221,221);stroke:black;stroke-width:0.42px;"/>
    </g>
    <g transform="matrix(1,0,0,1,1006.33,293.464)">
        <path d="M465.025,551.445L467.064,557.723L470.995,555.783L470.365,560.121L476.966,560.121L471.626,564.002L474.686,567.141L470.365,567.882L472.405,574.16L467.064,570.28L465.025,574.16L462.985,570.28L457.644,574.16L459.684,567.882L455.363,567.141L458.423,564.002L453.083,560.121L459.684,560.121L459.054,555.783L462.985,557.723L465.025,551.445Z" style="fill:rgb(221,221,221);stroke:black;stroke-width:0.42px;"/>
    </g>
    <g transform="matrix(1,0,0,1,1005.13,484.943)">
        <path d="M465.025,551.445L467.064,557.723L470.995,555.783L470.365,560.121L476.966,560.121L471.626,564.002L474.686,567.141L470.365,567.882L472.405,574.16L467.064,570.28L465.025,574.16L462.985,570.28L457.644,574.16L459.684,567.882L455.363,567.141L458.423,564.002L453.083,560.121L459.684,560.121L459.054,555.783L462.985,557.723L465.025,551.445Z" style="fill:rgb(221,221,221);stroke:black;stroke-width:0.42px;"/>
    </g>
    <g transform="matrix(0.873858,0,0,0.873858,1422.83,187.477)">
        <path d="M55.529,697.692L73.806,715.969L55.529,734.247L37.251,715.969L55.529,697.692Z" style="fill:rgb(221,221,221);stroke:black;stroke-width:0.48px;"/>
    </g>
    <g transform="matrix(0.873858,0,0,0.873858,1421.63,378.955)">
        <path d="M55.529,697.692L73.806,715.969L55.529,734.247L37.251,715.969L55.529,697.692Z" style="fill:rgb(221,221,221);stroke:black;stroke-width:0.48px;"/>
    </g>
    <g transform="matrix(0.995254,0,0,0.65563,418.099,533.985)">
        <path d="M716.632,431.126L716.632,440.976L706.65,425.822L716.632,410.668L716.632,420.518L1006.24,420.518L1006.24,431.126L716.632,431.126Z" style="fill:rgb(221,221,221);stroke:black;stroke-width:0.49px;"/>
    </g>
    <g transform="matrix(0.995254,0,0,0.65563,424.228,727.188)">
        <path d="M706.65,431.126L706.65,420.518L996.257,420.518L996.257,410.668L1006.24,425.822L996.257,440.976L996.257,431.126L706.65,431.126Z" style="fill:rgb(221,221,221);stroke:black;stroke-width:0.49px;"/>
    </g>
    <g transform="matrix(2.60722,0,0,2.60722,1465.69,1938.76)">
        <text x="20.165px" y="43.26px" style="font-family:'ArialMT', 'Arial', sans-serif;font-size:6.146px;">When infra receives a &quot;dead server component</text>
        <text x="148.069px" y="43.26px" style="font-family:'ArialMT', 'Arial', sans-serif;font-size:6.146px;">&quot;</text>
        <text x="151.897px" y="43.26px" style="font-family:'ArialMT', 'Arial', sans-serif;font-size:6.146px;">query<tspan x="166.815px " y="43.26px ">,</tspan></text>
        <text x="20.165px" y="49.607px" style="font-family:'ArialMT', 'Arial', sans-serif;font-size:6.146px;">the infra server pings the dead server component in question</text>
        <text x="20.165px" y="62.302px" style="font-family:'ArialMT', 'Arial', sans-serif;font-size:6.146px;">if the request fails, the server component is assumed is dead</text>
        <text x="20.165px" y="68.649px" style="font-family:'ArialMT', 'Arial', sans-serif;font-size:6.146px;">and remove from the list</text>
    </g>
    <g transform="matrix(1,0,0,1,753.149,485.732)">
        <text x="692.582px" y="1575.14px" style="font-family:'ArialMT', 'Arial', sans-serif;font-size:58.101px;">X</text>
    </g>
    <g transform="matrix(1,0,0,1,753.149,540.732)">
        <text x="692.582px" y="1575.14px" style="font-family:'ArialMT', 'Arial', sans-serif;font-size:58.101px;">X</text>
    </g>
    <g transform="matrix(0.930119,0,0,0.930119,1017.56,1574.16)">
        <path d="M61.261,483.817C60.239,483.718 59.21,483.718 58.188,483.817L57.682,486.281C56.703,486.431 55.743,486.688 54.819,487.048L53.149,485.167C52.214,485.592 51.323,486.107 50.488,486.704L51.281,489.09C50.508,489.71 49.805,490.413 49.186,491.186L46.799,490.392C46.202,491.228 45.687,492.119 45.262,493.054L47.143,494.724C46.783,495.647 46.526,496.607 46.376,497.587L43.912,498.093C43.813,499.115 43.813,500.144 43.912,501.166L46.376,501.672C46.526,502.651 46.783,503.611 47.143,504.535L45.262,506.205C45.687,507.14 46.202,508.031 46.799,508.866L49.186,508.072C49.805,508.846 50.508,509.549 51.281,510.168L50.488,512.555C51.323,513.152 52.214,513.667 53.149,514.091L54.819,512.211C55.743,512.571 56.703,512.828 57.682,512.978L58.188,515.442C59.21,515.541 60.239,515.541 61.261,515.442L61.767,512.978C62.747,512.828 63.707,512.571 64.63,512.211L66.3,514.091C67.235,513.667 68.126,513.152 68.961,512.555L68.168,510.168C68.941,509.549 69.644,508.846 70.263,508.072L72.65,508.866C73.247,508.031 73.762,507.14 74.187,506.205L72.306,504.535C72.666,503.611 72.923,502.651 73.073,501.672L75.537,501.166C75.636,500.144 75.636,499.115 75.537,498.093L73.073,497.587C72.923,496.607 72.666,495.647 72.306,494.724L74.187,493.054C73.762,492.119 73.247,491.228 72.65,490.392L70.263,491.186C69.644,490.413 68.941,489.71 68.168,489.09L68.961,486.704C68.126,486.107 67.235,485.592 66.3,485.167L64.63,487.048C63.707,486.688 62.747,486.431 61.767,486.281L61.261,483.817ZM59.725,496.452C61.478,496.452 62.902,497.876 62.902,499.629C62.902,501.383 61.478,502.807 59.725,502.807C57.971,502.807 56.547,501.383 56.547,499.629C56.547,497.876 57.971,496.452 59.725,496.452Z" style="fill:rgb(221,221,221);stroke:black;stroke-width:0.45px;"/>
    </g>
    <g transform="matrix(1,0,0,1,584.037,1520.41)">
        <path d="M465.025,551.445L467.064,557.723L470.995,555.783L470.365,560.121L476.966,560.121L471.626,564.002L474.686,567.141L470.365,567.882L472.405,574.16L467.064,570.28L465.025,574.16L462.985,570.28L457.644,574.16L459.684,567.882L455.363,567.141L458.423,564.002L453.083,560.121L459.684,560.121L459.054,555.783L462.985,557.723L465.025,551.445Z" style="fill:rgb(221,221,221);stroke:black;stroke-width:0.42px;"/>
    </g>
    <g transform="matrix(1,0,0,1,610.921,1520.41)">
        <path d="M465.025,551.445L467.064,557.723L470.995,555.783L470.365,560.121L476.966,560.121L471.626,564.002L474.686,567.141L470.365,567.882L472.405,574.16L467.064,570.28L465.025,574.16L462.985,570.28L457.644,574.16L459.684,567.882L455.363,567.141L458.423,564.002L453.083,560.121L459.684,560.121L459.054,555.783L462.985,557.723L465.025,551.445Z" style="fill:rgb(221,221,221);stroke:black;stroke-width:0.42px;"/>
    </g>
    <g transform="matrix(1,0,0,1,1000.03,1530.41)">
        <path d="M465.025,551.445L467.064,557.723L470.995,555.783L470.365,560.121L476.966,560.121L471.626,564.002L474.686,567.141L470.365,567.882L472.405,574.16L467.064,570.28L465.025,574.16L462.985,570.28L457.644,574.16L459.684,567.882L455.363,567.141L458.423,564.002L453.083,560.121L459.684,560.121L459.054,555.783L462.985,557.723L465.025,551.445Z" style="fill:rgb(221,221,221);stroke:black;stroke-width:0.42px;"/>
    </g>
    <g transform="matrix(0.873858,0,0,0.873858,1416.53,1414.42)">
        <path d="M55.529,697.692L73.806,715.969L55.529,734.247L37.251,715.969L55.529,697.692Z" style="fill:rgb(221,221,221);stroke:black;stroke-width:0.48px;"/>
    </g>
    <g transform="matrix(0.995254,0,0,0.65563,419.124,1762.65)">
        <path d="M706.65,431.126L706.65,420.518L996.257,420.518L996.257,410.668L1006.24,425.822L996.257,440.976L996.257,431.126L706.65,431.126Z" style="fill:rgb(221,221,221);stroke:black;stroke-width:0.49px;"/>
    </g>
    <g transform="matrix(2.60722,0,0,2.60722,2869.65,1285.44)">
        <text x="20.165px" y="43.26px" style="font-family:'ArialMT', 'Arial', sans-serif;font-size:6.146px;">infra server saves references to broadcasters by role</text>
        <text x="20.165px" y="59.327px" style="font-family:'ArialMT', 'Arial', sans-serif;font-size:6.146px;">{</text>
        <text x="23.58px" y="67.36px" style="font-family:'ArialMT', 'Arial', sans-serif;font-size:6.146px;">role {</text>
        <text x="26.996px" y="75.393px" style="font-family:'ArialMT', 'Arial', sans-serif;font-size:6.146px;">unique_id {</text>
        <text x="30.411px" y="83.426px" style="font-family:'ArialMT', 'Arial', sans-serif;font-size:6.146px;">registered_at</text>
        <text x="30.411px" y="91.46px" style="font-family:'ArialMT', 'Arial', sans-serif;font-size:6.146px;">ip_address</text>
        <text x="26.996px" y="99.493px" style="font-family:'ArialMT', 'Arial', sans-serif;font-size:6.146px;">}</text>
        <text x="26.996px" y="107.526px" style="font-family:'ArialMT', 'Arial', sans-serif;font-size:6.146px;">....</text>
        <text x="20.165px" y="115.56px" style="font-family:'ArialMT', 'Arial', sans-serif;font-size:6.146px;">}</text>
        <text x="20.165px" y="131.626px" style="font-family:'ArialMT', 'Arial', sans-serif;font-size:6.146px;">and saves receivers by role</text>
        <text x="20.165px" y="139.66px" style="font-family:'ArialMT', 'Arial', sans-serif;font-size:6.146px;">ordered by timestamp (important!)</text>
        <text x="20.165px" y="155.726px" style="font-family:'ArialMT', 'Arial', sans-serif;font-size:6.146px;">{</text>
        <text x="23.58px" y="163.76px" style="font-family:'ArialMT', 'Arial', sans-serif;font-size:6.146px;">role {</text>
        <text x="26.996px" y="171.793px" style="font-family:'ArialMT', 'Arial', sans-serif;font-size:6.146px;">unique_id {</text>
        <text x="30.411px" y="179.826px" style="font-family:'ArialMT', 'Arial', sans-serif;font-size:6.146px;">registered_at</text>
        <text x="30.411px" y="187.86px" style="font-family:'ArialMT', 'Arial', sans-serif;font-size:6.146px;">ip_address</text>
        <text x="26.996px" y="195.893px" style="font-family:'ArialMT', 'Arial', sans-serif;font-size:6.146px;">}</text>
        <text x="26.996px" y="203.926px" style="font-family:'ArialMT', 'Arial', sans-serif;font-size:6.146px;">....</text>
        <text x="20.165px" y="211.959px" style="font-family:'ArialMT', 'Arial', sans-serif;font-size:6.146px;">}</text>
    </g>
    <g transform="matrix(0.930119,0,0,0.930119,2621.53,920.847)">
        <path d="M61.261,483.817C60.239,483.718 59.21,483.718 58.188,483.817L57.682,486.281C56.703,486.431 55.743,486.688 54.819,487.048L53.149,485.167C52.214,485.592 51.323,486.107 50.488,486.704L51.281,489.09C50.508,489.71 49.805,490.413 49.186,491.186L46.799,490.392C46.202,491.228 45.687,492.119 45.262,493.054L47.143,494.724C46.783,495.647 46.526,496.607 46.376,497.587L43.912,498.093C43.813,499.115 43.813,500.144 43.912,501.166L46.376,501.672C46.526,502.651 46.783,503.611 47.143,504.535L45.262,506.205C45.687,507.14 46.202,508.031 46.799,508.866L49.186,508.072C49.805,508.846 50.508,509.549 51.281,510.168L50.488,512.555C51.323,513.152 52.214,513.667 53.149,514.091L54.819,512.211C55.743,512.571 56.703,512.828 57.682,512.978L58.188,515.442C59.21,515.541 60.239,515.541 61.261,515.442L61.767,512.978C62.747,512.828 63.707,512.571 64.63,512.211L66.3,514.091C67.235,513.667 68.126,513.152 68.961,512.555L68.168,510.168C68.941,509.549 69.644,508.846 70.263,508.072L72.65,508.866C73.247,508.031 73.762,507.14 74.187,506.205L72.306,504.535C72.666,503.611 72.923,502.651 73.073,501.672L75.537,501.166C75.636,500.144 75.636,499.115 75.537,498.093L73.073,497.587C72.923,496.607 72.666,495.647 72.306,494.724L74.187,493.054C73.762,492.119 73.247,491.228 72.65,490.392L70.263,491.186C69.644,490.413 68.941,489.71 68.168,489.09L68.961,486.704C68.126,486.107 67.235,485.592 66.3,485.167L64.63,487.048C63.707,486.688 62.747,486.431 61.767,486.281L61.261,483.817ZM59.725,496.452C61.478,496.452 62.902,497.876 62.902,499.629C62.902,501.383 61.478,502.807 59.725,502.807C57.971,502.807 56.547,501.383 56.547,499.629C56.547,497.876 57.971,496.452 59.725,496.452Z" style="fill:rgb(221,221,221);stroke:black;stroke-width:0.45px;"/>
    </g>
    <g transform="matrix(1,0,0,1,2188.01,867.089)">
        <path d="M465.025,551.445L467.064,557.723L470.995,555.783L470.365,560.121L476.966,560.121L471.626,564.002L474.686,567.141L470.365,567.882L472.405,574.16L467.064,570.28L465.025,574.16L462.985,570.28L457.644,574.16L459.684,567.882L455.363,567.141L458.423,564.002L453.083,560.121L459.684,560.121L459.054,555.783L462.985,557.723L465.025,551.445Z" style="fill:rgb(221,221,221);stroke:black;stroke-width:0.42px;"/>
    </g>
    <g transform="matrix(1,0,0,1,2214.89,867.089)">
        <path d="M465.025,551.445L467.064,557.723L470.995,555.783L470.365,560.121L476.966,560.121L471.626,564.002L474.686,567.141L470.365,567.882L472.405,574.16L467.064,570.28L465.025,574.16L462.985,570.28L457.644,574.16L459.684,567.882L455.363,567.141L458.423,564.002L453.083,560.121L459.684,560.121L459.054,555.783L462.985,557.723L465.025,551.445Z" style="fill:rgb(221,221,221);stroke:black;stroke-width:0.42px;"/>
    </g>
    <g transform="matrix(2.60722,0,0,2.60722,2869.15,1072.72)">
        <text x="20.165px" y="43.26px" style="font-family:'ArialMT', 'Arial', sans-serif;font-size:6.146px;">infra server saves references to broadcasters by role</text>
        <text x="20.165px" y="51.293px" style="font-family:'ArialMT', 'Arial', sans-serif;font-size:6.146px;">and repeats the steps of</text>
        <text x="20.165px" y="67.36px" style="font-family:'ArialMT', 'Arial', sans-serif;font-size:6.146px;">&quot;Register receiver and broadcaster with infra&quot;</text>
        <text x="20.165px" y="83.426px" style="font-family:'ArialMT', 'Arial', sans-serif;font-size:6.146px;">with the intention of saving the current ip address</text>
    </g>
    <g transform="matrix(0.930119,0,0,0.930119,2621.03,708.129)">
        <path d="M61.261,483.817C60.239,483.718 59.21,483.718 58.188,483.817L57.682,486.281C56.703,486.431 55.743,486.688 54.819,487.048L53.149,485.167C52.214,485.592 51.323,486.107 50.488,486.704L51.281,489.09C50.508,489.71 49.805,490.413 49.186,491.186L46.799,490.392C46.202,491.228 45.687,492.119 45.262,493.054L47.143,494.724C46.783,495.647 46.526,496.607 46.376,497.587L43.912,498.093C43.813,499.115 43.813,500.144 43.912,501.166L46.376,501.672C46.526,502.651 46.783,503.611 47.143,504.535L45.262,506.205C45.687,507.14 46.202,508.031 46.799,508.866L49.186,508.072C49.805,508.846 50.508,509.549 51.281,510.168L50.488,512.555C51.323,513.152 52.214,513.667 53.149,514.091L54.819,512.211C55.743,512.571 56.703,512.828 57.682,512.978L58.188,515.442C59.21,515.541 60.239,515.541 61.261,515.442L61.767,512.978C62.747,512.828 63.707,512.571 64.63,512.211L66.3,514.091C67.235,513.667 68.126,513.152 68.961,512.555L68.168,510.168C68.941,509.549 69.644,508.846 70.263,508.072L72.65,508.866C73.247,508.031 73.762,507.14 74.187,506.205L72.306,504.535C72.666,503.611 72.923,502.651 73.073,501.672L75.537,501.166C75.636,500.144 75.636,499.115 75.537,498.093L73.073,497.587C72.923,496.607 72.666,495.647 72.306,494.724L74.187,493.054C73.762,492.119 73.247,491.228 72.65,490.392L70.263,491.186C69.644,490.413 68.941,489.71 68.168,489.09L68.961,486.704C68.126,486.107 67.235,485.592 66.3,485.167L64.63,487.048C63.707,486.688 62.747,486.431 61.767,486.281L61.261,483.817ZM59.725,496.452C61.478,496.452 62.902,497.876 62.902,499.629C62.902,501.383 61.478,502.807 59.725,502.807C57.971,502.807 56.547,501.383 56.547,499.629C56.547,497.876 57.971,496.452 59.725,496.452Z" style="fill:rgb(221,221,221);stroke:black;stroke-width:0.45px;"/>
    </g>
    <g transform="matrix(1,0,0,1,2187.5,654.372)">
        <path d="M465.025,551.445L467.064,557.723L470.995,555.783L470.365,560.121L476.966,560.121L471.626,564.002L474.686,567.141L470.365,567.882L472.405,574.16L467.064,570.28L465.025,574.16L462.985,570.28L457.644,574.16L459.684,567.882L455.363,567.141L458.423,564.002L453.083,560.121L459.684,560.121L459.054,555.783L462.985,557.723L465.025,551.445Z" style="fill:rgb(221,221,221);stroke:black;stroke-width:0.42px;"/>
    </g>
    <g transform="matrix(1,0,0,1,2214.39,654.372)">
        <path d="M465.025,551.445L467.064,557.723L470.995,555.783L470.365,560.121L476.966,560.121L471.626,564.002L474.686,567.141L470.365,567.882L472.405,574.16L467.064,570.28L465.025,574.16L462.985,570.28L457.644,574.16L459.684,567.882L455.363,567.141L458.423,564.002L453.083,560.121L459.684,560.121L459.054,555.783L462.985,557.723L465.025,551.445Z" style="fill:rgb(221,221,221);stroke:black;stroke-width:0.42px;"/>
    </g>
    <g transform="matrix(1,0,0,1,2792.07,-83.6859)">
        <path d="M80.761,994.914L88.316,1000.4L84.538,1005.6L90.65,1007.59L87.765,1016.47L81.653,1014.48L81.653,1020.91L72.315,1020.91L72.315,1014.48L66.203,1016.47L63.317,1007.59L69.429,1005.6L65.652,1000.4L73.206,994.914L76.984,1000.11L80.761,994.914Z" style="fill:rgb(221,221,221);stroke:black;stroke-width:0.42px;"/>
    </g>
    <g transform="matrix(1,0,0,1,2792.07,-313.686)">
        <path d="M80.761,994.914L88.316,1000.4L84.538,1005.6L90.65,1007.59L87.765,1016.47L81.653,1014.48L81.653,1020.91L72.315,1020.91L72.315,1014.48L66.203,1016.47L63.317,1007.59L69.429,1005.6L65.652,1000.4L73.206,994.914L76.984,1000.11L80.761,994.914Z" style="fill:rgb(221,221,221);stroke:black;stroke-width:0.42px;"/>
    </g>
    <g transform="matrix(2.60722,0,0,2.60722,2872.68,1872.43)">
        <text x="20.165px" y="43.26px" style="font-family:'ArialMT', 'Arial', sans-serif;font-size:6.146px;">a broadcaster component can request a list of</text>
        <text x="20.165px" y="49.607px" style="font-family:'ArialMT', 'Arial', sans-serif;font-size:6.146px;">addresses for it&apos;s role</text>
        <text x="20.165px" y="68.649px" style="font-family:'ArialMT', 'Arial', sans-serif;font-size:6.146px;">[</text>
        <text x="23.58px" y="74.996px" style="font-family:'ArialMT', 'Arial', sans-serif;font-size:6.146px;">{</text>
        <text x="26.996px" y="81.344px" style="font-family:'ArialMT', 'Arial', sans-serif;font-size:6.146px;">ip_address</text>
        <text x="26.996px" y="87.691px" style="font-family:'ArialMT', 'Arial', sans-serif;font-size:6.146px;">url</text>
        <text x="23.58px" y="94.038px" style="font-family:'ArialMT', 'Arial', sans-serif;font-size:6.146px;">}</text>
        <text x="20.165px" y="100.386px" style="font-family:'ArialMT', 'Arial', sans-serif;font-size:6.146px;">...</text>
        <text x="20.165px" y="106.733px" style="font-family:'ArialMT', 'Arial', sans-serif;font-size:6.146px;">]</text>
    </g>
    <g transform="matrix(0.930119,0,0,0.930119,2421.93,1512.69)">
        <path d="M61.261,483.817C60.239,483.718 59.21,483.718 58.188,483.817L57.682,486.281C56.703,486.431 55.743,486.688 54.819,487.048L53.149,485.167C52.214,485.592 51.323,486.107 50.488,486.704L51.281,489.09C50.508,489.71 49.805,490.413 49.186,491.186L46.799,490.392C46.202,491.228 45.687,492.119 45.262,493.054L47.143,494.724C46.783,495.647 46.526,496.607 46.376,497.587L43.912,498.093C43.813,499.115 43.813,500.144 43.912,501.166L46.376,501.672C46.526,502.651 46.783,503.611 47.143,504.535L45.262,506.205C45.687,507.14 46.202,508.031 46.799,508.866L49.186,508.072C49.805,508.846 50.508,509.549 51.281,510.168L50.488,512.555C51.323,513.152 52.214,513.667 53.149,514.091L54.819,512.211C55.743,512.571 56.703,512.828 57.682,512.978L58.188,515.442C59.21,515.541 60.239,515.541 61.261,515.442L61.767,512.978C62.747,512.828 63.707,512.571 64.63,512.211L66.3,514.091C67.235,513.667 68.126,513.152 68.961,512.555L68.168,510.168C68.941,509.549 69.644,508.846 70.263,508.072L72.65,508.866C73.247,508.031 73.762,507.14 74.187,506.205L72.306,504.535C72.666,503.611 72.923,502.651 73.073,501.672L75.537,501.166C75.636,500.144 75.636,499.115 75.537,498.093L73.073,497.587C72.923,496.607 72.666,495.647 72.306,494.724L74.187,493.054C73.762,492.119 73.247,491.228 72.65,490.392L70.263,491.186C69.644,490.413 68.941,489.71 68.168,489.09L68.961,486.704C68.126,486.107 67.235,485.592 66.3,485.167L64.63,487.048C63.707,486.688 62.747,486.431 61.767,486.281L61.261,483.817ZM59.725,496.452C61.478,496.452 62.902,497.876 62.902,499.629C62.902,501.383 61.478,502.807 59.725,502.807C57.971,502.807 56.547,501.383 56.547,499.629C56.547,497.876 57.971,496.452 59.725,496.452Z" style="fill:rgb(221,221,221);stroke:black;stroke-width:0.45px;"/>
    </g>
    <g transform="matrix(1,0,0,1,1988.4,1458.94)">
        <path d="M465.025,551.445L467.064,557.723L470.995,555.783L470.365,560.121L476.966,560.121L471.626,564.002L474.686,567.141L470.365,567.882L472.405,574.16L467.064,570.28L465.025,574.16L462.985,570.28L457.644,574.16L459.684,567.882L455.363,567.141L458.423,564.002L453.083,560.121L459.684,560.121L459.054,555.783L462.985,557.723L465.025,551.445Z" style="fill:rgb(221,221,221);stroke:black;stroke-width:0.42px;"/>
    </g>
    <g transform="matrix(1,0,0,1,2015.29,1458.94)">
        <path d="M465.025,551.445L467.064,557.723L470.995,555.783L470.365,560.121L476.966,560.121L471.626,564.002L474.686,567.141L470.365,567.882L472.405,574.16L467.064,570.28L465.025,574.16L462.985,570.28L457.644,574.16L459.684,567.882L455.363,567.141L458.423,564.002L453.083,560.121L459.684,560.121L459.054,555.783L462.985,557.723L465.025,551.445Z" style="fill:rgb(221,221,221);stroke:black;stroke-width:0.42px;"/>
    </g>
    <g transform="matrix(0.873858,0,0,0.873858,2821.88,1352.95)">
        <path d="M55.529,697.692L73.806,715.969L55.529,734.247L37.251,715.969L55.529,697.692Z" style="fill:rgb(221,221,221);stroke:black;stroke-width:0.48px;"/>
    </g>
    <g transform="matrix(0.995254,0,0,0.65563,1820.74,1699.42)">
        <path d="M716.632,431.126L716.632,440.976L706.65,425.822L716.632,410.668L716.632,420.518L1006.24,420.518L1006.24,431.126L716.632,431.126Z" style="fill:rgb(221,221,221);stroke:black;stroke-width:0.49px;"/>
    </g>
    <g transform="matrix(2.60722,0,0,2.60722,2871.83,759.787)">
        <text x="20.165px" y="43.26px" style="font-family:'ArialMT', 'Arial', sans-serif;font-size:6.146px;">receiver or broadcaster is initialized</text>
        <text x="20.165px" y="55.955px" style="font-family:'ArialMT', 'Arial', sans-serif;font-size:6.146px;">set announcement interval</text>
        <text x="20.165px" y="62.302px" style="font-family:'ArialMT', 'Arial', sans-serif;font-size:6.146px;">5 10 15 seconds</text>
        <text x="20.165px" y="74.996px" style="font-family:'ArialMT', 'Arial', sans-serif;font-size:6.146px;">setup simple ﬁxed time-step</text>
        <text x="20.165px" y="87.691px" style="font-family:'ArialMT', 'Arial', sans-serif;font-size:6.146px;">send</text>
        <text x="20.165px" y="100.386px" style="font-family:'ArialMT', 'Arial', sans-serif;font-size:6.146px;">{</text>
        <text x="23.58px" y="106.733px" style="font-family:'ArialMT', 'Arial', sans-serif;font-size:6.146px;">role</text>
        <text x="23.58px" y="113.08px" style="font-family:'ArialMT', 'Arial', sans-serif;font-size:6.146px;">unique_id</text>
        <text x="20.165px" y="119.428px" style="font-family:'ArialMT', 'Arial', sans-serif;font-size:6.146px;">}</text>
    </g>
    <g transform="matrix(0.930119,0,0,0.930119,2421.07,400.05)">
        <path d="M61.261,483.817C60.239,483.718 59.21,483.718 58.188,483.817L57.682,486.281C56.703,486.431 55.743,486.688 54.819,487.048L53.149,485.167C52.214,485.592 51.323,486.107 50.488,486.704L51.281,489.09C50.508,489.71 49.805,490.413 49.186,491.186L46.799,490.392C46.202,491.228 45.687,492.119 45.262,493.054L47.143,494.724C46.783,495.647 46.526,496.607 46.376,497.587L43.912,498.093C43.813,499.115 43.813,500.144 43.912,501.166L46.376,501.672C46.526,502.651 46.783,503.611 47.143,504.535L45.262,506.205C45.687,507.14 46.202,508.031 46.799,508.866L49.186,508.072C49.805,508.846 50.508,509.549 51.281,510.168L50.488,512.555C51.323,513.152 52.214,513.667 53.149,514.091L54.819,512.211C55.743,512.571 56.703,512.828 57.682,512.978L58.188,515.442C59.21,515.541 60.239,515.541 61.261,515.442L61.767,512.978C62.747,512.828 63.707,512.571 64.63,512.211L66.3,514.091C67.235,513.667 68.126,513.152 68.961,512.555L68.168,510.168C68.941,509.549 69.644,508.846 70.263,508.072L72.65,508.866C73.247,508.031 73.762,507.14 74.187,506.205L72.306,504.535C72.666,503.611 72.923,502.651 73.073,501.672L75.537,501.166C75.636,500.144 75.636,499.115 75.537,498.093L73.073,497.587C72.923,496.607 72.666,495.647 72.306,494.724L74.187,493.054C73.762,492.119 73.247,491.228 72.65,490.392L70.263,491.186C69.644,490.413 68.941,489.71 68.168,489.09L68.961,486.704C68.126,486.107 67.235,485.592 66.3,485.167L64.63,487.048C63.707,486.688 62.747,486.431 61.767,486.281L61.261,483.817ZM59.725,496.452C61.478,496.452 62.902,497.876 62.902,499.629C62.902,501.383 61.478,502.807 59.725,502.807C57.971,502.807 56.547,501.383 56.547,499.629C56.547,497.876 57.971,496.452 59.725,496.452Z" style="fill:rgb(221,221,221);stroke:black;stroke-width:0.45px;"/>
    </g>
    <g transform="matrix(1,0,0,1,1987.55,346.292)">
        <path d="M465.025,551.445L467.064,557.723L470.995,555.783L470.365,560.121L476.966,560.121L471.626,564.002L474.686,567.141L470.365,567.882L472.405,574.16L467.064,570.28L465.025,574.16L462.985,570.28L457.644,574.16L459.684,567.882L455.363,567.141L458.423,564.002L453.083,560.121L459.684,560.121L459.054,555.783L462.985,557.723L465.025,551.445Z" style="fill:rgb(221,221,221);stroke:black;stroke-width:0.42px;"/>
    </g>
    <g transform="matrix(1,0,0,1,2014.43,346.292)">
        <path d="M465.025,551.445L467.064,557.723L470.995,555.783L470.365,560.121L476.966,560.121L471.626,564.002L474.686,567.141L470.365,567.882L472.405,574.16L467.064,570.28L465.025,574.16L462.985,570.28L457.644,574.16L459.684,567.882L455.363,567.141L458.423,564.002L453.083,560.121L459.684,560.121L459.054,555.783L462.985,557.723L465.025,551.445Z" style="fill:rgb(221,221,221);stroke:black;stroke-width:0.42px;"/>
    </g>
    <g transform="matrix(0.873858,0,0,0.873858,2821.03,240.305)">
        <path d="M55.529,697.692L73.806,715.969L55.529,734.247L37.251,715.969L55.529,697.692Z" style="fill:rgb(221,221,221);stroke:black;stroke-width:0.48px;"/>
    </g>
    <g transform="matrix(0.995254,0,0,0.65563,1819.88,586.778)">
        <path d="M716.632,431.126L716.632,440.976L706.65,425.822L716.632,410.668L716.632,420.518L1006.24,420.518L1006.24,431.126L716.632,431.126Z" style="fill:rgb(221,221,221);stroke:black;stroke-width:0.49px;"/>
    </g>
    <g transform="matrix(1,0,0,1,357,103)">
        <path d="M541.789,441.283C552.699,441.283 563.427,446.294 573.796,449.205C577.597,450.272 581.496,450.99 585.184,452.405C588.007,453.487 588.911,455.414 588.636,454.59" style="fill:none;stroke:black;stroke-width:0.42px;"/>
    </g>
    <g transform="matrix(1,0,0,1,357,103)">
        <path d="M591.705,464.798C591.705,470.128 576.705,486.335 576.401,486.721C575.578,487.765 572.505,489.875 572.505,491.411" style="fill:none;stroke:black;stroke-width:0.42px;"/>
    </g>
</svg>
